<svg xmlns="http://www.w3.org/2000/svg" xmlns:xlink="http://www.w3.org/1999/xlink" width="351.203" height="264.051" viewBox="0 0 351.203 264.051"><defs><linearGradient id="a" x1="0.406" y1="0.858" x2="0.506" y2="0.407" gradientUnits="objectBoundingBox"><stop offset="0" stop-color="#fff" stop-opacity="0"/><stop offset="0.98" stop-color="#84210b"/></linearGradient><linearGradient id="b" x1="0.426" y1="0.792" x2="0.522" y2="0.356" xlink:href="#a"/><linearGradient id="c" x1="0.425" y1="0.813" x2="0.522" y2="0.422" xlink:href="#a"/><linearGradient id="d" x1="0.378" y1="0.787" x2="0.516" y2="0.466" xlink:href="#a"/><linearGradient id="e" x1="0.362" y1="0.831" x2="0.466" y2="0.585" xlink:href="#a"/></defs><g transform="translate(-145 -922)"><path d="M26.94,144.57,162.55,65.7a6.41,6.41,0,0,1,6.41,0L371.75,181.75a6.41,6.41,0,0,1,0,11.12L242.09,267.75a20.93,20.93,0,0,1-20.93,0L27,155.67a6.41,6.41,0,0,1-.06-11.1Z" transform="translate(121.233 915.497)" fill="#ff9f1c"/><path d="M169.6,82.76V24h-3.9V82.49a4.91,4.91,0,0,0,3.9.27Z" transform="translate(121.233 915.497)" fill="#772e29"/><path d="M81.88,170.69l117.86,67.53,28.97-17.03L111.69,153.47Z" transform="translate(121.233 915.497)" fill="#a04d42"/><path d="M111.69,153.47v34.3L81.88,170.69Z" transform="translate(121.233 915.497)" fill="#772e29"/><ellipse cx="14.8" cy="17.07" rx="14.8" ry="17.07" transform="translate(271.558 927.648) rotate(-11)" fill="#f84a4b"/><ellipse cx="11.9" cy="13.73" rx="11.9" ry="13.73" transform="translate(275.042 930.373) rotate(-11)" fill="none" stroke="#f2f2f2" stroke-miterlimit="10" stroke-width="1"/><path d="M169.12,17.52a2.2,2.2,0,0,0-2.9,0c-.87.91-.57,2.17-.57,3.32v7.88a2.12,2.12,0,0,0,2.89,2.12c1.19-.45,1.09-1.63,1.09-2.69V20.58c0-.88.27-2-.3-2.82A1.621,1.621,0,0,0,169.12,17.52Z" transform="translate(121.233 915.497)" fill="#fff"/><path d="M167.21,32.9a1.24,1.24,0,0,0-.75.72c-.59,1.46,1,3.19,2.36,2a1.67,1.67,0,0,0-.49-2.61,1.49,1.49,0,0,0-1.12-.11Z" transform="translate(121.233 915.497)" fill="#fff"/><path d="M197.09,118.25,125.5,160.24,84.02,135.03l58.59-34.21" transform="translate(121.233 915.497)" opacity="0.63" fill="url(#a)"/><path d="M237.12,159.14a46.23,46.23,0,0,1-14.26,4.35c-7.5,1.1-17.71,2.92-24.61-1.16-6.46-3.82-6.82-10.54-4.3-16.72L146,173.35l50.75,28.15,55.93-32.8Z" transform="translate(121.233 915.497)" opacity="0.63" fill="url(#b)"/><path d="M305.38,204.42l-48.02,28.17L213.8,208.42l50.45-29.21" transform="translate(121.233 915.497)" opacity="0.63" fill="url(#c)"/><path d="M324.42,178.31l-2.47-1.43-9.51.91.87-2.66-12.07-3.34H264l-21.58,6.8V191l19.68,11.36h-1v12.45l13.6,7.85,11.3-6.48,7.27,4.2,11.71-6.81v-8.42l32.78-19.05h.09V173.69Zm-40.35,23.21-17.24-10,41.58-4.19Z" transform="translate(121.233 915.497)" fill="#68e1fd"/><path d="M324.42,178.31l-2.47-1.43-9.51.91.87-2.66-12.07-3.34H264l-21.58,6.8V191l19.68,11.36h-1v12.45l13.6,7.85,11.3-6.48,7.27,4.2,11.71-6.81v-8.42l32.78-19.05h.09V173.69Zm-40.35,23.21-17.24-10,41.58-4.19Z" transform="translate(121.233 915.497)" fill="#bfd1e5" opacity="0.95"/><path d="M297.67,196.93l7.27,4.2-11.71,6.81-7.27-4.2-11.27,6.55-13.6-7.85,11.27-6.55-30-17.29,13.52-7.86,66-6.29,15.86,9.16Zm-13.6-7.85,24.34-14.14-41.58,4.19,17.24,10" transform="translate(121.233 915.497)" fill="#1462e1"/><path d="M263.84,150.25V136.11l-10,1.22-.2-.12a39.556,39.556,0,0,0-5.57-2.63c-1.18-3.14-4-9.15-8.3-10.29-5.94-1.56-15.93.21-15.93.21l-22.06,9.64c.1,0,1.63.43,3.82.93a69.462,69.462,0,0,0-12,5.55,55.391,55.391,0,0,0-7.18,4.9l-8.84,1.07v14.35h0q.07,8.6,10.29,14.52,11.35,6.55,28.35,5.86A67.87,67.87,0,0,0,247.93,172q14.79-8.6,15.91-18.43A14.679,14.679,0,0,0,263.84,150.25Zm-56.72-1.78a46.55,46.55,0,0,1,19.35-6.57q9.44-.82,15,2.37a10.9,10.9,0,0,1,2.58,2c-5.86,7.65-15.12,12.8-24.62,14.79-7.31,1.53-13.85,1.05-20-3.36-.59-.42-1.24-.9-1.92-1.41q2.76-3.84,9.62-7.83Z" transform="translate(121.233 915.497)" fill="#68e1fd"/><path d="M263.84,150.25V136.11l-10,1.22-.2-.12a39.556,39.556,0,0,0-5.57-2.63c-1.18-3.14-4-9.15-8.3-10.29-5.94-1.56-15.93.21-15.93.21l-22.06,9.64c.1,0,1.63.43,3.82.93a69.462,69.462,0,0,0-12,5.55,55.391,55.391,0,0,0-7.18,4.9l-8.84,1.07v14.35h0q.07,8.6,10.29,14.52,11.35,6.55,28.35,5.86A67.87,67.87,0,0,0,247.93,172q14.79-8.6,15.91-18.43A14.679,14.679,0,0,0,263.84,150.25Zm-56.72-1.78a46.55,46.55,0,0,1,19.35-6.57q9.44-.82,15,2.37a10.9,10.9,0,0,1,2.58,2c-5.86,7.65-15.12,12.8-24.62,14.79-7.31,1.53-13.85,1.05-20-3.36-.59-.42-1.24-.9-1.92-1.41q2.76-3.84,9.62-7.83Z" transform="translate(121.233 915.497)" fill="#bfd1e5" opacity="0.95"/><path d="M263.84,139.5q-1.12,9.83-15.91,18.43a67.87,67.87,0,0,1-31.78,9.29q-17,.69-28.35-5.86T177.6,145q1.15-9.85,15.93-18.44a67.75,67.75,0,0,1,31.77-9.27q17-.68,28.32,5.87T263.84,139.5ZM215,156.65a46.56,46.56,0,0,0,19.35-6.58q9.91-5.76,11.29-11.23t-4.16-8.67q-5.54-3.2-15-2.37a46.55,46.55,0,0,0-19.35,6.57q-9.9,5.75-11.28,11.23t4.15,8.67q5.55,3.2,15,2.38" transform="translate(121.233 915.497)" fill="#1462e1"/><path d="M194.63,106.32l-2.47-1.43-9.51.91.87-2.66L171.45,99.8H134.19l-21.58,6.8V119l19.68,11.36h-1v12.45l13.6,7.85,11.27-6.55,7.27,4.2,11.71-6.81v-8.42l32.78-19.05h.09V101.7Zm-40.35,23.21-17.24-10,41.58-4.19Z" transform="translate(121.233 915.497)" fill="#68e1fd"/><path d="M194.63,106.32l-2.47-1.43-9.51.91.87-2.66L171.45,99.8H134.19l-21.58,6.8V119l19.68,11.36h-1v12.45l13.6,7.85,11.27-6.55,7.27,4.2,11.71-6.81v-8.42l32.78-19.05h.09V101.7Zm-40.35,23.21-17.24-10,41.58-4.19Z" transform="translate(121.233 915.497)" fill="#bfd1e5" opacity="0.95"/><path d="M167.88,124.94l7.27,4.2-11.71,6.81-7.27-4.2L144.9,138.3l-13.6-7.85,11.27-6.55-30-17.29,13.52-7.86,66-6.29L208,101.61Zm-13.6-7.85,24.34-14.14L137,107.13l17.24,10" transform="translate(121.233 915.497)" fill="#1462e1"/><path d="M65.66,144.73,37.93,160.92l24.39,14.82,27.17-15.93C81.25,155.21,73,150.58,65.66,144.73Z" transform="translate(121.233 915.497)" opacity="0.63" fill="url(#d)"/><path d="M224.82,236l-27.73,16.19L221.48,267l27.17-15.93C240.41,246.51,232.19,241.88,224.82,236Z" transform="translate(121.233 915.497)" opacity="0.63" fill="url(#e)"/><path d="M77.8,166.71l22.3-13.23a3.41,3.41,0,0,0,.12-5.8l-18.43-12a5.71,5.71,0,0,0-6.31,0l-21.9,14.74a3.41,3.41,0,0,0,.15,5.75L71.17,166.7a6.47,6.47,0,0,0,6.63.01Z" transform="translate(121.233 915.497)" fill="#b24800"/><path d="M77.8,164.71l22.3-13.23a3.41,3.41,0,0,0,.12-5.8l-18.43-12a5.71,5.71,0,0,0-6.31,0l-21.9,14.74a3.41,3.41,0,0,0,.15,5.75l17.43,10.46a6.47,6.47,0,0,0,6.64.08Z" transform="translate(121.233 915.497)" fill="#df5d00"/><path d="M74.09,111.7,62.25,149.15s-2.89,9.5,14.87,8.54,15.42-9.78,15.42-9.78L80.69,111.7" transform="translate(121.233 915.497)" fill="#ff8522"/><path d="M69.7,125.57S72.05,128,77.46,128c6.76,0,7.48-3.33,7.48-3.33l2.48,7.57s-1.78,4.27-10,4.13c-7.4-.12-10.3-2.78-10.3-2.78" transform="translate(121.233 915.497)" fill="#fff"/><path d="M65.3,139.84a16.92,16.92,0,0,0,12,4.76c8.79-.1,12.09-6.35,12.09-6.35l2.61,8s-3.77,5.85-14.61,6.63c-10.22.73-14.61-5-14.61-5" transform="translate(121.233 915.497)" fill="#fff"/><path d="M76.64,112H74.11L62.27,149.43s-2.69,8.86,13.11,8.6C75.72,142.67,76.49,127.33,76.64,112Z" transform="translate(121.233 915.497)" fill="#ff8522" opacity="0.15"/><ellipse cx="3.37" cy="1.93" rx="3.37" ry="1.93" transform="translate(195.323 1025.547)" fill="#ff9f57"/><path d="M233.64,260.5l22.3-13.23a3.41,3.41,0,0,0,.12-5.8l-18.43-12a5.71,5.71,0,0,0-6.31,0l-21.9,14.74a3.41,3.41,0,0,0,.15,5.75L227,260.48A6.47,6.47,0,0,0,233.64,260.5Z" transform="translate(121.233 915.497)" fill="#b24800"/><path d="M233.64,258.49l22.3-13.23a3.41,3.41,0,0,0,.12-5.8l-18.43-12a5.71,5.71,0,0,0-6.31,0l-21.9,14.74a3.41,3.41,0,0,0,.15,5.75L227,258.48a6.47,6.47,0,0,0,6.64.01Z" transform="translate(121.233 915.497)" fill="#df5d00"/><path d="M229.93,205.49l-11.84,37.45s-2.89,9.5,14.87,8.54,15.42-9.78,15.42-9.78l-11.84-36.21" transform="translate(121.233 915.497)" fill="#ff8522"/><path d="M225.54,219.36s2.35,2.43,7.76,2.43c6.76,0,7.48-3.33,7.48-3.33l2.48,7.57s-1.78,4.27-10,4.13c-7.4-.12-10.3-2.78-10.3-2.78" transform="translate(121.233 915.497)" fill="#fff"/><path d="M221.15,233.63a16.92,16.92,0,0,0,12,4.76c8.79-.1,12.09-6.35,12.09-6.35l2.61,8s-3.77,5.85-14.61,6.63c-10.22.73-14.61-5-14.61-5" transform="translate(121.233 915.497)" fill="#fff"/><path d="M232.49,205.77h-2.54l-11.84,37.45s-2.69,8.86,13.11,8.6C231.56,236.46,232.33,221.12,232.49,205.77Z" transform="translate(121.233 915.497)" fill="#ff8522" opacity="0.15"/><ellipse cx="3.37" cy="1.93" rx="3.37" ry="1.93" transform="translate(351.163 1119.337)" fill="#ff9f57"/></g></svg>