<svg xmlns="http://www.w3.org/2000/svg" width="20" height="20" viewBox="0 0 20 20"><path d="M744.1,1048a9.506,9.506,0,0,1,7.1-2.9,9.9,9.9,0,0,1,7.1,2.9,9.356,9.356,0,0,1,2.9,7.1,9.9,9.9,0,0,1-2.9,7.1,9.356,9.356,0,0,1-7.1,2.9,9.9,9.9,0,0,1-7.1-2.9,9.356,9.356,0,0,1-2.9-7.1A9.733,9.733,0,0,1,744.1,1048Zm1.5,12.7a7.73,7.73,0,0,0,5.6,2.4,7.568,7.568,0,0,0,5.6-2.4,8.146,8.146,0,0,0,2.4-5.6,8.917,8.917,0,0,0-.3-2.2,7.166,7.166,0,0,1-2.2.2,9.625,9.625,0,0,1-8.2-4.2,9.834,9.834,0,0,1-5.2,5.4v.8A7.259,7.259,0,0,0,745.6,1060.7Zm1.7-5.6a1.268,1.268,0,0,1,.9-.4,1.273,1.273,0,1,1-1.3,1.3A1.489,1.489,0,0,1,747.3,1055.1Zm6,0a1.268,1.268,0,0,1,.9-.4,1.273,1.273,0,1,1-1.3,1.3A1.489,1.489,0,0,1,753.3,1055.1Z" transform="translate(-741.2 -1045.1)" fill="#1462e1"/></svg>