<svg xmlns="http://www.w3.org/2000/svg" width="512" height="459.151" viewBox="0 0 512 459.151"><g transform="translate(0 -26.424)"><path d="M128.636,362.74l-.908-.055a85.527,85.527,0,0,1-20.53-3.8l-45.624,79a15,15,0,0,0,5.653,20.582l44.91,25.187a15.007,15.007,0,0,0,20.336-5.582l66.61-115.333Z" fill="#1462e1"/><path d="M381.991,28.656,246.464,111.628v238.94l135.7,80.615a15.005,15.005,0,0,0,22.671-12.895V41.448a15.005,15.005,0,0,0-22.842-12.792Z" fill="#1462e1"/><path d="M48.53,280.042V179.281a80.6,80.6,0,0,1,1.782-16.826H28.5A28.491,28.491,0,0,0,0,190.942v77.439a28.491,28.491,0,0,0,28.5,28.487H50.3a81.088,81.088,0,0,1-1.774-16.826Z" fill="#1462e1"/><path d="M216.454,332.74H129.546c-28.17-1.708-51.006-24.537-51.006-52.7V179.282c0-28.161,22.836-50.989,51.006-49.28h86.908Z" fill="#1462e1"/><path d="M470.72,352.291a14.961,14.961,0,0,1-10.61-4.394l-30.269-30.259a15,15,0,1,1,21.22-21.213l30.269,30.259a15,15,0,0,1-10.61,25.607Z" fill="#1462e1"/><path d="M440.45,172.291a15,15,0,0,1-10.61-25.607l30.269-30.259a15,15,0,0,1,21.22,21.213L451.06,167.9a14.959,14.959,0,0,1-10.61,4.394Z" fill="#1462e1"/><path d="M496.995,247.161H454.188a15,15,0,1,1,0-30h42.807a15,15,0,1,1,0,30Z" fill="#1462e1"/></g></svg>