<svg xmlns="http://www.w3.org/2000/svg" width="13.5" height="19" viewBox="0 0 13.5 19"><path d="M852.327,560.255v13.818h9.818V575.8h-9.818a1.078,1.078,0,0,1-.859-.518,2.1,2.1,0,0,1-.368-1.209V560.255Zm11.046-3.455a1.078,1.078,0,0,1,.859.518,2.1,2.1,0,0,1,.368,1.209v12.091a2.1,2.1,0,0,1-.368,1.209,1.078,1.078,0,0,1-.859.518h-8.591a1.078,1.078,0,0,1-.859-.518,2.1,2.1,0,0,1-.368-1.209V558.527a2.1,2.1,0,0,1,.368-1.209,1.078,1.078,0,0,1,.859-.518Zm0,13.818V558.527h-8.591v12.091Z" transform="translate(-851.1 -556.8)" fill="#1462e1"/></svg>