<svg xmlns="http://www.w3.org/2000/svg" width="338.669" height="312.33" viewBox="0 0 338.669 312.33"><g transform="translate(-791.334 -334.333)"><path d="M1108.33,251.16l6.786-18.66s10.749-19.686,11.672-20.712,13.414-15.827,18.045-19.344,22.2-17.586,27.454-18.172,18.144-47.027,22.513-58.911,9.876-24.034,21.6-31.068,39.486,0,39.486,0,4.319,1.466,12.644,4.69,141.073,63.8,173.561,122.8-106.935,138.925-106.935,138.925l-37.015,19.93-38.858,15.827s-26.845,6.155-33.014,6.448-29.61,4.4-40.865-14.215-18.67-34.438-19.6-82.359,0-45.184,0-45.184,24.99-5.96,31.158-5.374,18.5,1.368,24.679,5.374,17.267,10.453,22.2,18.074,11.721,23.447,11.1,33.413,0,19.93-3.082,26.378-8.02,20.321-11.1,23.056,36.4-31.263,39.479-34.78,28.38-35.171,28.38-35.171l23.138-22.568s8.94-7.914,19.738-11.724,28.684-4.4,35.471-2.052,7.405,1.758,0-4.69-29.61-17-46.884-18.172-25.45.586-25.45.586-15.574,3.078-18.352,4.836-6.168,2.785-10.18,5.129-4.472,4.4-5.553,4.983-8.632-10.112-11.876-11.724-13.567-9.379-16.96-11.724-14.655-6.888-16.662-7.327-12.647-3.37-14.8-3.957-12.191-1.758-14.5-2.2-12.185.293-15.267.879-11.569,1.758-14.962,2.931-19.12,7.474-20.978,8.206-14.188,8.94-16.345,10.112-13.113,10.551-15.118,12.31S1108.33,251.16,1108.33,251.16Z" transform="translate(-316.996 253.166)" fill="#1462e1"/><circle cx="35" cy="35" r="35" transform="translate(933.671 397.666)" fill="#ff9f1c"/></g></svg>