<svg xmlns="http://www.w3.org/2000/svg" width="554.939" height="710.713" viewBox="0 0 554.939 710.713"><g transform="translate(-2564.876 -4181)"><path d="M853.606,262.605h-3.9V155.628a61.915,61.915,0,0,0-61.915-61.915H561.141a61.915,61.915,0,0,0-61.916,61.915V742.511a61.915,61.915,0,0,0,61.915,61.915H787.788A61.915,61.915,0,0,0,849.7,742.511V338.753h3.9Z" transform="translate(2266.209 4087.287)" fill="#3f3d56"/><path d="M837.006,151.481V746.656a46.958,46.958,0,0,1-46.935,46.952H558.764a46.968,46.968,0,0,1-46.973-46.959V151.481a46.965,46.965,0,0,1,46.971-46.951H586.82a22.329,22.329,0,0,0,20.656,30.74H739.344A22.329,22.329,0,0,0,760,104.53h30.055a46.957,46.957,0,0,1,46.951,46.934Z" transform="translate(2266.209 4087.287)" fill="#fff"/><path d="M96.565,0A96.565,96.565,0,1,1,0,96.565,96.565,96.565,0,0,1,96.565,0Z" transform="translate(2844 4284.564)" fill="#1462e1" stroke="#1462e1" stroke-width="1"/><path d="M779.672,494.309H574.135a3.81,3.81,0,0,1-3.806-3.806V439.52a3.811,3.811,0,0,1,3.806-3.806H779.672a3.811,3.811,0,0,1,3.806,3.806v50.985a3.811,3.811,0,0,1-3.806,3.806ZM574.135,437.235a2.286,2.286,0,0,0-2.284,2.284V490.5a2.286,2.286,0,0,0,2.284,2.284H779.672a2.286,2.286,0,0,0,2.284-2.284V439.519a2.286,2.286,0,0,0-2.284-2.284Z" transform="translate(2266.209 4087.287)" fill="#e6e6e6"/><path d="M637.7,454.074a2.665,2.665,0,0,0,0,5.329H763.3a2.665,2.665,0,0,0,.2-5.326l-.117,0H637.7Z" transform="translate(2266.209 4087.287)" fill="#bfd1e5"/><path d="M637.7,470.058a2.665,2.665,0,0,0,0,5.329H763.3a2.665,2.665,0,0,0,.2-5.326l-.117,0H637.7Z" transform="translate(2266.209 4087.287)" fill="#bfd1e5"/><path d="M779.672,579.289H574.135a3.81,3.81,0,0,1-3.806-3.806V524.5a3.811,3.811,0,0,1,3.806-3.806H779.672a3.811,3.811,0,0,1,3.806,3.806v50.985a3.811,3.811,0,0,1-3.806,3.8ZM574.135,522.215a2.286,2.286,0,0,0-2.284,2.284v50.985a2.286,2.286,0,0,0,2.284,2.284H779.672a2.286,2.286,0,0,0,2.284-2.284V524.5a2.286,2.286,0,0,0-2.284-2.284Z" transform="translate(2266.209 4087.287)" fill="#e6e6e6"/><path d="M637.7,539.33a2.664,2.664,0,0,0,0,5.329H763.3a2.665,2.665,0,0,0,.087-5.328H637.7Z" transform="translate(2266.209 4087.287)" fill="#bfd1e5"/><path d="M637.7,555.318a2.664,2.664,0,0,0,0,5.329H763.3a2.665,2.665,0,1,0,.087-5.329H637.7Z" transform="translate(2266.209 4087.287)" fill="#bfd1e5"/><path d="M779.672,664.547H574.135a3.81,3.81,0,0,1-3.806-3.806V609.758a3.811,3.811,0,0,1,3.806-3.806H779.672a3.811,3.811,0,0,1,3.806,3.806v50.985a3.811,3.811,0,0,1-3.806,3.806ZM574.135,607.473a2.286,2.286,0,0,0-2.284,2.284v50.985a2.286,2.286,0,0,0,2.284,2.284H779.672a2.286,2.286,0,0,0,2.284-2.284V609.757a2.286,2.286,0,0,0-2.284-2.284Z" transform="translate(2266.209 4087.287)" fill="#e6e6e6"/><path d="M637.7,624.591a2.664,2.664,0,0,0,0,5.329H763.3a2.665,2.665,0,0,0,.2-5.326l-.117,0H637.7Z" transform="translate(2266.209 4087.287)" fill="#bfd1e5"/><path d="M637.7,640.578a2.664,2.664,0,0,0,0,5.329H763.3a2.665,2.665,0,0,0,.2-5.326l-.117,0H637.7Z" transform="translate(2266.209 4087.287)" fill="#bfd1e5"/><g transform="translate(2495 4181)"><circle cx="15.986" cy="15.986" r="15.986" transform="translate(355 354.999)" fill="#ff9f1c"/><path d="M592.124,461.712c-.184,0-.333,1.193-.333,2.664s.149,2.665.333,2.665h15.719c.184.024.336-1.149.339-2.62a5.943,5.943,0,0,0-.328-2.708h-15.73Z" transform="translate(-228.791 -93.713)" fill="#e6e6e6"/></g><g transform="translate(2495 4181)"><circle cx="15.986" cy="15.986" r="15.986" transform="translate(355 440.292)" fill="#ff9f1c"/><path d="M592.124,547.005c-.184,0-.333,1.193-.333,2.664s.149,2.665.333,2.665h15.719c.184.024.336-1.149.339-2.62a5.943,5.943,0,0,0-.328-2.708h-15.73Z" transform="translate(-228.791 -93.713)" fill="#e6e6e6"/></g><g transform="translate(2495 4181)"><circle cx="15.986" cy="15.986" r="15.986" transform="translate(355 525.55)" fill="#1462e1"/><path d="M592.124,632.263c-.184,0-.333,1.193-.333,2.664s.149,2.665.333,2.665h15.719c.184.024.336-1.149.339-2.62a5.944,5.944,0,0,0-.328-2.708h-15.73Z" transform="translate(-228.791 -93.713)" fill="#e6e6e6"/></g><rect width="8" height="67" transform="translate(2914.051 4360.269) rotate(-45)" fill="#fff"/><rect width="8" height="67" transform="translate(2961.427 4354.615) rotate(45)" fill="#fff"/><path d="M319.051,549.848a10.056,10.056,0,0,0,5.388-14.447L348,508.537,329.608,506l-19.558,25.9a10.11,10.11,0,0,0,9,17.95Z" transform="translate(2266.209 4087.287)" fill="#ffb8b8"/><path d="M118.679,694.215H102.244L94.425,630.82h24.257Z" transform="translate(2495 4181)" fill="#ffb8b8"/><path d="M351.662,803.86l-52.995,0v-.67a20.628,20.628,0,0,1,20.626-20.627h32.37Z" transform="translate(2266.209 4087.287)"/><path d="M204.713,680.461l-15.7,4.873L162.751,627.11l23.166-7.192Z" transform="translate(2495 4181)" fill="#ffb8b8"/><path d="M442.232,788.147,391.621,803.86l-.2-.64A20.628,20.628,0,0,1,405,777.4h0l30.912-9.6Z" transform="translate(2266.209 4087.287)"/><path d="M334.884,495.656l-24.341,27.877,19.056,1.715Z" transform="translate(2266.209 4087.287)" fill="#e6e6e6"/><path d="M325.373,531.589s-8.455,4.227-9.512,23.251,3.171,68.7,3.171,68.7-4.227,22.194,0,42.274-4.227,93,1.057,93,32.762,3.171,33.819,0,2.114-50.729,2.114-50.729,8.455-24.308,0-39.1c0,0,29.521,51.548,48.615,90.889,4.179,8.61,35.933-1.057,30.649-10.569s-17.966-52.843-17.966-52.843-9.512-31.706-26.421-45.445l8.455-67.639s17.967-45.445,7.4-51.786S325.373,531.589,325.373,531.589Z" transform="translate(2266.209 4087.287)"/><circle cx="27.478" cy="27.478" r="27.478" transform="translate(2595.81 4391.651)" fill="#ffb8b8"/><path d="M387.727,361.434l-34.16,20.08s-13.08,7.366-17.966,20.08c-5.208,13.55-2.181,32.628,0,36.99,4.227,8.455-1.773,29.592-1.773,29.592l-5.284,48.615s-19.023,17.966-4.227,20.08,41.217-1.057,57.07,0,33.819,3.171,28.535-7.4-11.625-17.967-5.284-39.1c4.962-16.54,4.747-78.383,4.419-104.5A21.025,21.025,0,0,0,398.846,368.1Z" transform="translate(2266.209 4087.287)" fill="#1462e1"/><path d="M372.407,394.727l3.17,64.468-30.726,62.223-5.211-1.983,31.706-58.127Z" transform="translate(2266.209 4087.287)" opacity="0.1"/><path d="M407.279,472.932v-7.4L371.35,524.718Z" transform="translate(2266.209 4087.287)" opacity="0.1"/><path d="M337.576,306.387l-4.539-1.816s9.5-10.457,22.713-9.548l-3.717-4.092s9.085-3.637,17.345,5.91c4.342,5.019,9.365,10.919,12.5,17.564h4.865l-2.03,4.471,7.106,4.471-7.294-.8a24.739,24.739,0,0,1-.69,11.579l.2,3.534s-8.459-13.089-8.459-14.9V327.3s-4.543-4.092-4.543-6.82l-2.478,3.183-1.239-5-15.28,5,2.476-4.094-9.5,1.364,3.717-5s-10.737,5.91-11.15,10.912-5.781,11.366-5.781,11.366l-2.478-4.547S325.6,313.207,337.576,306.387Z" transform="translate(2266.209 4087.287)" fill="#2f2e41"/><path d="M355.354,552.839a10.056,10.056,0,0,0,2.738-15.174l18.423-30.62-18.554.768-14.65,28.96a10.11,10.11,0,0,0,12.043,16.067Z" transform="translate(2266.209 4087.287)" fill="#ffb8b8"/><path d="M397.24,375.175l7.926-1.585s23.779,17.438,16.381,52.314-40.16,87.719-40.16,87.719-7.4,9.512-9.512,11.625-6.341,0-4.227,3.171-3.171,5.284-3.171,5.284-23.251,0-21.137-8.455,38.047-68.7,38.047-68.7L376.1,400.535S371.874,373.061,397.24,375.175Z" transform="translate(2266.209 4087.287)" fill="#1462e1"/></g></svg>