<svg xmlns="http://www.w3.org/2000/svg" width="122.861" height="124.814" viewBox="0 0 122.861 124.814"><g transform="translate(-0.977)"><path d="M48.083,80.355,46.168,91.729a4.147,4.147,0,0,0,6.011,4.37L62.4,90.761,72.631,96.1a4.149,4.149,0,0,0,6.014-4.37L76.732,80.356l8.234-8.077a4.149,4.149,0,0,0-2.3-7.07l-11.41-1.692L66.12,53.188a4.151,4.151,0,0,0-7.434,0L53.552,63.517l-11.41,1.691a4.151,4.151,0,0,0-2.3,7.07Z" fill="#1462e1"/><path d="M111.443,13.269H98.378V6.022A6.022,6.022,0,0,0,92.355,0H91.4a6.021,6.021,0,0,0-6.021,6.022v7.247h-46.1V6.022A6.022,6.022,0,0,0,33.261,0h-.956a6.021,6.021,0,0,0-6.021,6.022v7.247H13.371A12.408,12.408,0,0,0,.977,25.663V112.42a12.411,12.411,0,0,0,12.394,12.394h98.073a12.411,12.411,0,0,0,12.394-12.394V25.663A12.41,12.41,0,0,0,111.443,13.269ZM109.826,110.8H14.988V43.268h94.838Z" fill="#1462e1"/></g></svg>