<svg xmlns="http://www.w3.org/2000/svg" width="22" height="15" viewBox="0 0 22 15"><path d="M707.5,632a11.738,11.738,0,0,1,13.4,0,11.943,11.943,0,0,1,4.3,5.4,11.443,11.443,0,0,1-4.3,5.4,12.081,12.081,0,0,1-6.7,2.1,11.341,11.341,0,0,1-6.7-2.1,11.943,11.943,0,0,1-4.3-5.4A11.943,11.943,0,0,1,707.5,632Zm3.2,9a4.852,4.852,0,0,0,3.5,1.5,4.691,4.691,0,0,0,3.5-1.5,5.288,5.288,0,0,0,1.5-3.5,4.691,4.691,0,0,0-1.5-3.5,5.288,5.288,0,0,0-3.5-1.5,4.691,4.691,0,0,0-3.5,1.5,5.288,5.288,0,0,0-1.5,3.5A4.852,4.852,0,0,0,710.7,641Zm1.4-5.7a2.9,2.9,0,1,1-.9,2.1A2.878,2.878,0,0,1,712.1,635.3Z" transform="translate(-703.2 -629.9)" fill="#1462e1"/></svg>