<svg xmlns="http://www.w3.org/2000/svg" width="20" height="20" viewBox="0 0 20 20"><path d="M559.3,1082.8a9.506,9.506,0,0,1,7.1-2.9,9.9,9.9,0,0,1,7.1,2.9,9.356,9.356,0,0,1,2.9,7.1,9.9,9.9,0,0,1-2.9,7.1,9.356,9.356,0,0,1-7.1,2.9,9.9,9.9,0,0,1-7.1-2.9,9.356,9.356,0,0,1-2.9-7.1A9.732,9.732,0,0,1,559.3,1082.8Zm1.5,12.7a7.73,7.73,0,0,0,5.6,2.4,7.568,7.568,0,0,0,5.6-2.4,8.146,8.146,0,0,0,2.4-5.6,7.568,7.568,0,0,0-2.4-5.6,8.146,8.146,0,0,0-5.6-2.4,7.568,7.568,0,0,0-5.6,2.4,8.146,8.146,0,0,0-2.4,5.6A7.73,7.73,0,0,0,560.8,1095.5Zm4.6-8.7v-2h2v2Zm0,8v-6h2v6Z" transform="translate(-556.4 -1079.9)" fill="#1462e1"/></svg>