<svg xmlns="http://www.w3.org/2000/svg" width="16" height="21" viewBox="0 0 16 21"><path d="M498.5,1085.8a2.051,2.051,0,0,1,2,2v10a2.051,2.051,0,0,1-2,2h-12a2.051,2.051,0,0,1-2-2v-10a2.051,2.051,0,0,1,2-2h1v-2a4.539,4.539,0,0,1,1.5-3.5,5.288,5.288,0,0,1,3.5-1.5,4.691,4.691,0,0,1,3.5,1.5,5.288,5.288,0,0,1,1.5,3.5v2Zm-2.9,0v-2a3.1,3.1,0,0,0-.9-2.2,3.1,3.1,0,0,0-5.3,2.2v2Zm-4.5,8.4a1.933,1.933,0,1,0-.6-1.4A1.974,1.974,0,0,0,491.1,1094.2Z" transform="translate(-484.5 -1078.8)" fill="#585858"/></svg>