<svg xmlns="http://www.w3.org/2000/svg" width="18.1" height="19" viewBox="0 0 18.1 19"><path d="M632.6,2l16.7,16.7L648,20l-4.2-4.2a7.893,7.893,0,0,1-2.6.9V20h-2V16.7a6.335,6.335,0,0,1-4.2-2.3,6.66,6.66,0,0,1-1.8-4.4h1.7a4.375,4.375,0,0,0,1.6,3.6,5.046,5.046,0,0,0,3.7,1.4,6.352,6.352,0,0,0,2.3-.5l-1.6-1.6a1.7,1.7,0,0,1-.7.1,2.878,2.878,0,0,1-2.1-.9,2.878,2.878,0,0,1-.9-2.1V9.3l-6-6Zm10.7,8.2-6-6V4a2.878,2.878,0,0,1,.9-2.1,2.9,2.9,0,0,1,4.2,0,2.878,2.878,0,0,1,.9,2.1Zm4-.2a6.556,6.556,0,0,1-.9,3.3L645.2,12a4.477,4.477,0,0,0,.4-2Z" transform="translate(-631.2 -1)" fill="#fff"/></svg>