<svg xmlns="http://www.w3.org/2000/svg" width="20.9" height="19.9" viewBox="0 0 20.9 19.9"><path d="M228.3,977a7.927,7.927,0,0,0-3.5,6.4h-2a10.151,10.151,0,0,1,4.1-7.8Zm11.5,6.9v5.5l2,2v1h-17v-1l2-2v-5.5a6.489,6.489,0,0,1,1.4-4,5.828,5.828,0,0,1,3.6-2.3v-.7a1.5,1.5,0,0,1,.4-1.1,1.366,1.366,0,0,1,1.1-.4,1.5,1.5,0,0,1,1.1.4,1.366,1.366,0,0,1,.4,1.1v.7a6.512,6.512,0,0,1,5,6.3Zm-4.5,9.5a1.678,1.678,0,0,1-.6,1.4,1.871,1.871,0,0,1-1.4.5,2.051,2.051,0,0,1-2-2h4Zm6.4-10a7.885,7.885,0,0,0-3.6-6.4l1.5-1.4a9.859,9.859,0,0,1,4.1,7.8h-2Z" transform="translate(-222.8 -975.4)" fill="#1462e1"/></svg>