<svg xmlns="http://www.w3.org/2000/svg" width="22" height="14" viewBox="0 0 22 14"><path d="M423.1,986.4a11.843,11.843,0,0,1,4.3.9c1.5.6,2.2,1.4,2.2,2.4v2.7h-22v-2.7c0-1,.8-1.8,2.2-2.4a11.059,11.059,0,0,1,4.3-.9,10.488,10.488,0,0,1,4.5,1A10.488,10.488,0,0,1,423.1,986.4Zm-4,4.5v-1.2c0-.3-.6-.7-1.7-1.1a9.827,9.827,0,0,0-3.4-.7,8.29,8.29,0,0,0-3.4.7c-1.2.5-1.7.8-1.7,1.1v1.2Zm-2.6-6.5a3.625,3.625,0,1,1,1-2.5A3.317,3.317,0,0,1,416.5,984.4Zm-1-3.9a1.933,1.933,0,1,0,.6,1.4A1.974,1.974,0,0,0,415.5,980.5Zm10,3.9a3.625,3.625,0,1,1,1-2.5A3.317,3.317,0,0,1,425.5,984.4Zm2.6,6.5v-1.2c0-.3-.6-.7-1.7-1.1a8.209,8.209,0,0,0-6.4-.1,2.078,2.078,0,0,1,.5,1.2v1.2Zm-3.6-10.4a1.933,1.933,0,1,0,.6,1.4A1.974,1.974,0,0,0,424.5,980.5Z" transform="translate(-407.6 -978.4)"/></svg>