<svg xmlns="http://www.w3.org/2000/svg" width="22" height="20.35" viewBox="0 0 22 20.35"><g transform="translate(-656.5 -844.9)"><path d="M751.37,905.8a1.153,1.153,0,0,1,.791.318,1.016,1.016,0,0,1,.339.742v6.36a1.016,1.016,0,0,1-.339.742,1.153,1.153,0,0,1-.791.318h-7.91l-2.26,2.12v-9.54a1.016,1.016,0,0,1,.339-.742,1.153,1.153,0,0,1,.791-.318Zm-6.215,4.77v-1.06h-1.13v1.06Zm2.26,0v-1.06h-1.13v1.06Zm2.26,0v-1.06h-1.13v1.06Z" transform="translate(-74 -60.9)" fill="#1462e1"/><path d="M449.609,986.315a11.286,11.286,0,0,1,4.141-.883,11.623,11.623,0,0,1,4.141.883c1.484.562,2.109,1.365,2.109,2.329v1.606H447.5v-1.606C447.5,987.68,448.2,986.957,449.609,986.315Zm6.328-3.453a2.964,2.964,0,0,1-4.375,0,3.166,3.166,0,0,1,0-4.5,2.964,2.964,0,0,1,4.375,0,3.081,3.081,0,0,1,.938,2.249A2.955,2.955,0,0,1,455.938,982.861Z" transform="translate(209 -125)" fill="#1462e1"/></g></svg>