<svg xmlns="http://www.w3.org/2000/svg" width="20" height="20" viewBox="0 0 20 20"><path d="M559.3,421.6a9.506,9.506,0,0,1,7.1-2.9,9.9,9.9,0,0,1,7.1,2.9,9.356,9.356,0,0,1,2.9,7.1,9.9,9.9,0,0,1-2.9,7.1,9.356,9.356,0,0,1-7.1,2.9,9.9,9.9,0,0,1-7.1-2.9,9.356,9.356,0,0,1-2.9-7.1A9.733,9.733,0,0,1,559.3,421.6Zm1.5,12.7a7.729,7.729,0,0,0,5.6,2.4,7.568,7.568,0,0,0,5.6-2.4,8.146,8.146,0,0,0,2.4-5.6,7.568,7.568,0,0,0-2.4-5.6,8.146,8.146,0,0,0-5.6-2.4,7.568,7.568,0,0,0-5.6,2.4,8.146,8.146,0,0,0-2.4,5.6A7.73,7.73,0,0,0,560.8,434.3Zm7.7-7.8a2.9,2.9,0,1,1-2.1-.9A2.878,2.878,0,0,1,568.5,426.5Z" transform="translate(-556.4 -418.7)" fill="#1462e1"/></svg>