<svg xmlns="http://www.w3.org/2000/svg" width="18" height="20" viewBox="0 0 18 20"><path d="M720.2,989.5a2.878,2.878,0,0,1,2.1.9,2.709,2.709,0,0,1,.8,2,2.878,2.878,0,0,1-.9,2.1,2.829,2.829,0,0,1-2,.9,2.665,2.665,0,0,1-2-.9,3.333,3.333,0,0,1-.9-2.1v-.7l-7.1-4.1a3.227,3.227,0,0,1-2.1.8,3,3,0,0,1,0-6,3.227,3.227,0,0,1,2.1.8l7-4.1a1.953,1.953,0,0,1-.1-.7,2.97,2.97,0,1,1,3,3,3.439,3.439,0,0,1-2.1-.8l-7,4.1a2.5,2.5,0,0,1,0,1.4l7.1,4.1A3.523,3.523,0,0,1,720.2,989.5Z" transform="translate(-705.1 -975.4)" fill="#ff9f1c"/></svg>