<svg xmlns="http://www.w3.org/2000/svg" xmlns:xlink="http://www.w3.org/1999/xlink" width="586.418" height="725.146" viewBox="0 0 586.418 725.146"><defs><linearGradient id="a" x1="0.505" y1="1.007" x2="0.505" gradientUnits="objectBoundingBox"><stop offset="0" stop-color="gray" stop-opacity="0.251"/><stop offset="0.54" stop-color="gray" stop-opacity="0.122"/><stop offset="1" stop-color="gray" stop-opacity="0.102"/></linearGradient></defs><g transform="translate(-186 -1992.399)"><text transform="translate(596.904 2372)" fill="#444" font-size="18" font-family="Montserrat-Medium, Montserrat" font-weight="500"><tspan x="0" y="0">Phone Number</tspan></text><g transform="translate(399.577 1992.399)"><rect width="10.994" height="90.604" rx="2.29" transform="translate(361.847 163.799)" fill="#3f3d56"/><rect width="367.778" height="725.146" rx="38.99" fill="#3f3d56"/><path d="M757.9,199H715.712v4.915c0,12.868-10.774,23.3-24.06,23.29H557.483c-13.286.007-24.06-10.422-24.06-23.29V199h-39.5c-16.132,0-29.209,12.666-29.209,28.289V856.97c0,15.624,13.077,28.289,29.209,28.289H757.9c16.132,0,29.209-12.666,29.209-28.289V227.338a27.843,27.843,0,0,0-8.537-20.035A29.7,29.7,0,0,0,757.9,199Z" transform="translate(-441.311 -179.531)" fill="#fff"/><rect width="51.357" height="10.423" rx="3.87" transform="translate(148.414 22.322)" fill="#e6e8ec"/><circle cx="5.919" cy="5.919" r="5.919" transform="translate(207.539 21.615)" fill="#e6e8ec"/><circle cx="69.573" cy="69.573" r="69.573" transform="translate(116.562 301.84)" fill="#fff"/><path d="M706.184,502.6A92.987,92.987,0,1,1,613.2,409.61a92.986,92.986,0,0,1,92.987,92.99ZM602.451,551.82l68.977-68.977a5.993,5.993,0,0,0,0-8.487l-8.487-8.425a5.981,5.981,0,0,0-8.475,0L598.208,522.19,571.94,495.86a6.018,6.018,0,0,0-8.487,0l-8.487,8.537a6.018,6.018,0,0,0,0,8.487l39,38.986a5.993,5.993,0,0,0,8.487,0Z" transform="translate(-428.541 -140.544)" fill="#ff9f1c"/></g><g transform="translate(186 2090.536)"><rect width="5.543" height="26.813" rx="2.29" transform="translate(252.414 49.22)" fill="#3f3d56"/><rect width="6.246" height="46.666" rx="2.29" transform="translate(252.213 98.317)" fill="#3f3d56"/><rect width="5.945" height="47.067" rx="2.29" transform="translate(252.313 161.312)" fill="#3f3d56"/><path d="M377.46,474.88a1.026,1.026,0,0,0,1.216.156A4.307,4.307,0,0,1,377.46,474.88Z" transform="translate(-198.815 -189.107)" fill="url(#a)"/><path d="M425.255,491l-1.2,6.536-.926,5-1.684,9.146-16.329,11.432s-1.472-1.26-3.9-3.246c-6.692-5.51-20.757-16.73-31.085-22.753a34.784,34.784,0,0,0-8.544-3.937Z" transform="translate(-200.647 -187.248)" fill="#feb9b9"/><path d="M414.642,497.22s19.039,3.268,20.154-4.863-9.8-12.525-19.05-13.072-64.768,3.268-64.768,3.268-9.793,13.061,25.575,15.247Z" transform="translate(-202.013 -188.605)" fill="#3f3d56"/><rect width="99.6" height="118.104" transform="translate(154.665 40.308)" fill="#2f2e41"/><rect width="99.6" height="118.104" transform="translate(154.665 40.844)" opacity="0.1"/><path d="M255.223,437.085c-1.64.413-3.736,2-6.067,4.294-10.038,9.938-24.415,33.26-24.415,33.26-18.381-21.9,1.959-39.194,10.629-45.139,2.108-1.439,3.524-2.231,3.524-2.231Z" transform="translate(-217.289 -194.599)" fill="#feb9b9"/><path d="M423.149,288.22s4.9,34.286,21.771,42.45-21.771,23.422-21.771,23.422L370.36,334.484s29.936-9.8,23.946-38.647Z" transform="translate(-199.634 -210.637)" fill="#feb9b9"/><path d="M373.53,473.16l-1.194,6.514-.97,5.019-1.684,9.146L353.353,505.26s-1.472-1.249-3.9-3.234c-6.692-5.51-20.756-16.73-31.1-22.753a34.572,34.572,0,0,0-8.544-3.937Z" transform="translate(-206.618 -189.306)" fill="#feb9b9"/><path d="M360.794,482.55s17.087.121,18.115-8.033-9.312-12.525-18.115-13.072-62.289,3.522-62.289,3.522-7.588,15.4,26.055,17.582Z" transform="translate(-208.007 -190.663)" fill="#2f2e41"/><path d="M475.315,610.635c-.747-.368-1.495-.747-2.231-1.115l-2.008-2.532L444.743,573.6v.58c-.178,5.577-2.074,49.767-16.864,53.849-15.782,4.35-34.821,5.443-43.5-23.946s-24.537-93.611-40.822-97.425l24.225-19.864s16.039,18.76,22.574,36.717c-.245-1.115-11.321-52.867-2.231-62.024H467.6s12.269,34.944,20.678,52.254c6.547,13.44,16.373,45.216,22.7,66.72C517.241,601.69,495.235,620.439,475.315,610.635Z" transform="translate(-202.725 -190.653)" fill="#2f2e41"/><path d="M468.826,478.11c-12.269,7.261-66.129,4.3-83.651,3.123l-4.774-.346c-.513,0,.078-.29.078-.29l.491-4.941,13.061-33.193,69.932-40.554c-1.417,4.272-1.885,10.808-1.773,18.292C462.513,444.248,468.826,478.11,468.826,478.11Z" transform="translate(-198.5 -197.524)" opacity="0.1"/><path d="M468.886,476.637c-12.269,7.261-66.129,4.3-83.651,3.123l-4.774-.335-.792-.067.87-.223,4.3-1.115,9.246-37.007,69.932-40.543c-1.416,4.272-1.885,10.808-1.773,18.292C462.573,442.786,468.886,476.637,468.886,476.637Z" transform="translate(-198.56 -197.69)" fill="rgba(255,255,255,0.88)"/><path d="M462.128,418.739c-14.221,3.279-45.517,12.9-57.541,36.137-8.019,15.47-14.767,22.106-19.474,24.883l-4.774-.335a2.753,2.753,0,0,0,.078-.29l4.3-1.115,9.246-37.007L463.9,400.47C462.5,404.719,462.016,411.255,462.128,418.739Z" transform="translate(-198.483 -197.69)" opacity="0.1"/><path d="M237.025,427.29l16.329,9.793c-1.64.413-3.736,2-6.067,4.294-1.361-3.971-9.9-9.514-13.786-11.878C235.608,428.082,237.025,427.29,237.025,427.29Z" transform="translate(-215.42 -194.596)" opacity="0.1"/><path d="M377.845,471.846a.97.97,0,0,1-1.115-.156,3.871,3.871,0,0,0,1.115.156Z" transform="translate(-198.899 -189.475)" opacity="0.1"/><path d="M431.352,332.938s-14.7,1.628-25.039-9.257c0,0-43.5,12.525-58.232,40.821S233.2,448.32,233.2,448.32s17.422,9.793,15.782,14.689l65.861-38.1s23.422-16.864,29.925-20.678,42.461-27.214,50.079,36.461,0,56.057,0,56.057,10.886,3.815,26.668-26.668,64.757-37.554,64.757-37.554l2.721-32.1s9.715-21.281,2.231-30.114a18.961,18.961,0,0,1-4.361-9.213c-1.238-8.153,0-21.738,17.332-33.025,26.668-17.422,37.007-31.564,37.007-31.564s.546-10.35-15.782-15.247S442.7,249.7,442.7,249.7l-2.231,9.257,52.388,36.974s-26.121,21.191-46.844,20.678C446.007,316.609,449.855,332.391,431.352,332.938Z" transform="translate(-215.454 -215.08)" fill="#1462e1"/><path d="M423.262,302.975a106.3,106.3,0,0,1-3.011-13.3l-28.843,7.62a31.621,31.621,0,0,1-.658,16.641,31.018,31.018,0,0,0,32.512-10.966Z" transform="translate(-197.282 -210.469)" opacity="0.1"/><circle cx="31.018" cy="31.018" r="31.018" transform="translate(171.005 40.855)" fill="#feb9b9"/><path d="M428.67,507.07s17.957,35.379,12.514,46.253" transform="translate(-192.908 -185.395)" opacity="0.1"/><path d="M421.94,218.894c8.61.982,16.786,4.673,25.263,6.692a12.537,12.537,0,0,0,6.536.245c3.29-1.015,5.967-4.461,9.38-4.361,2.1.067,3.959,1.495,5.688,2.866a69.967,69.967,0,0,1,7.807,6.96c5.844,6.346,9.469,14.89,14.8,21.794s12.934,15,20.507,11.834C506.769,285,490.7,297.559,472.443,298.809c-7.283.5-14.745-1.015-21.794,1.115a18.884,18.884,0,0,1-5.5,1.338c-4.06,0-7.328-3.725-9.86-7.35-5.934-8.521-10.629-18.191-17.31-25.965-2.231-2.576-4.807-5.019-7.93-5.487s-5.989,1.026-8.766,2.465c-4.584,2.376-9.268,4.829-12.826,8.923s-5.8,10.138-4.328,15.615c.792,2.967,2.6,5.644,2.632,8.744.067,4.952-4.3,8.566-5.164,13.384a50.182,50.182,0,0,0-.212,6.09c-.379,6.6-4.7,12-9.2,16.161-1.762,1.606-3.7,3.346-4.216,5.833-.346,1.706,0,3.5-.223,5.231-.658,4.283-4.93,6.458-8.711,7.016a25.128,25.128,0,0,1-13.072-1.55c5.287-2.5,8.544-9.614,7.317-15.983-1.684-8.834-10.562-15.18-9.8-24.169a28,28,0,0,1,2.454-7.952,72.856,72.856,0,0,0,4.194-15.068c.669-3.982.993-8.209-.257-12.012-1.115-3.458-3.446-6.212-5.421-9.135a51.942,51.942,0,0,1-6.279-12.86,9.046,9.046,0,0,1-.6-4.261,8.79,8.79,0,0,1,2.733-4.406c4.852-5.1,10.038-10.4,16.541-11.856a37.233,37.233,0,0,1,9.391-.357,110.841,110.841,0,0,0,16.317-.692c4.461-.524,12-.457,15.782-3.346,3.524-2.7,5.51-6.09,9.848-7.807a29,29,0,0,1,13.763-1.573Z" transform="translate(-203.422 -218.66)" fill="#2f2e41"/></g></g></svg>