<svg xmlns="http://www.w3.org/2000/svg" xmlns:xlink="http://www.w3.org/1999/xlink" width="331.677" height="220.742" viewBox="0 0 331.677 220.742"><defs><linearGradient id="a" x1="0.5" x2="0.5" y2="1" gradientUnits="objectBoundingBox"><stop offset="0" stop-color="#ff9f1c"/><stop offset="1" stop-color="#80500e"/></linearGradient></defs><g transform="translate(-2630 -867)"><path d="M373.25,165.57,245.17,91.08a6.06,6.06,0,0,0-6.05,0L47.57,200.69a6.06,6.06,0,0,0,0,10.5L170,281.91a19.77,19.77,0,0,0,19.77,0L373.23,176a6.06,6.06,0,0,0,.02-10.43Z" transform="translate(2585.463 803.184)" fill="#ff9f1c"/><path d="M266.2,161.07c-4.27,2.52-13.56,6.66-17.64,9.38l-34-20.92,45.31-20.72L290,147.12C287.69,148.37,268.48,159.72,266.2,161.07Z" transform="translate(2585.463 803.184)" fill="url(#a)"/><path d="M166,223.35c-5.17,3-16.39,8-21.33,11.34l-41.14-25.3,54.79-25.06,36.52,22.15C192,208,168.77,221.73,166,223.35Z" transform="translate(2585.463 803.184)" fill="url(#a)"/><path d="M271.21,229.9c-5.17,3-16.39,8-21.33,11.34l-41.14-25.3,54.79-25.06L300,213C297.2,214.54,274,228.27,271.21,229.9Z" transform="translate(2585.463 803.184)" fill="url(#a)"/><path d="M132.63,179.36a68.07,68.07,0,0,1,17.5-.86c7.89.69,17.64,4.6,22.41,11.78,7.15,10.78-4.07,19.48-13.67,24.2A73.41,73.41,0,0,1,127,222.41c-9.72.05-20.8-1.51-28.95-7.16a13.09,13.09,0,0,1-3.6-17.51C102,184.9,119.22,181.68,132.63,179.36Z" transform="translate(2585.463 803.184)" fill="none" stroke="#bfd1e5" stroke-miterlimit="10" stroke-width="2"/><path d="M103.53,208.77s.91-14.55,1.25-18.15c.31-3.25,1.39-17.56,10.34-22.07,11.3-5.71,24.34-13.12,36.37-9.67,9.76,2.8,13.09,36.57,13,38.83C164.28,201.75,134,223.14,103.53,208.77Z" transform="translate(2585.463 803.184)" fill="#1462e1"/><path d="M121.35,165.49c.21-.1,6.61,4.68,6.9,11.78s1.39,36.22,1.39,36.22,15.51-.91,25.14-7.6c0,0-2.19-33.78-5.23-40.4S138,158.87,138,158.87Z" transform="translate(2585.463 803.184)" fill="#68e1fd"/><path d="M121.35,165.49c.21-.1,6.61,4.68,6.9,11.78s1.39,36.22,1.39,36.22,15.51-.91,25.14-7.6c0,0-2.19-33.78-5.23-40.4S138,158.87,138,158.87Z" transform="translate(2585.463 803.184)" fill="#bfd1e5"/><path d="M146.2,139.62a14,14,0,0,0,3.78-6.49c1.39-4.53-.93-11.11-5.84-11.72s-6.42,1.93-6.42,1.93-18.31-3.24-21.13,11.12h0c-.52,4-2.72,18.61,9.18,21.81s7.62-13.71,7.62-13.71" transform="translate(2585.463 803.184)" fill="#4b1b13"/><path d="M146.71,136.45v13c.05,3.7-1.51,13.71-7.6,13.39s-12.33-7.4-12.33-9c0,0-6.15-3.83-2.68-6.78s3.75,2,3.75,2,1.89-2.74,2-10.1a32.11,32.11,0,0,0,16.86-2.51Z" transform="translate(2585.463 803.184)" fill="#ffac73"/><path d="M127.06,163.58c3.11,2.86,8.16,3.4,12.83,2.73a1.52,1.52,0,0,0,1.4-1.32c.08-1.43.16-2.86.29-4.29l-16.05-7.85,1.24,10.23S126.87,163.28,127.06,163.58Z" transform="translate(2585.463 803.184)" fill="#ffac73"/><path d="M138.07,166.5a13.037,13.037,0,0,0,1.87-.2,1.47,1.47,0,0,0,1.35-1.28c0-.74.07-1.49.12-2.23-3.4,0-9.45-.8-12.64-7.1a13.73,13.73,0,0,0,9.3,10.81Z" transform="translate(2585.463 803.184)" fill="#e5894a"/><path d="M242.89,120a98.168,98.168,0,0,1,17.15.07c7.66.67,17.13,4.46,21.76,11.44,6.94,10.47-3.95,18.91-13.27,23.51a71.289,71.289,0,0,1-30.92,7.69c-9.44.05-20.2-1.47-28.11-7-8.8-6.11-6.06-18.23,3-23.29,7.13-4,11.44-6.5,19.13-9C235,122.48,239.39,120.27,242.89,120Z" transform="translate(2585.463 803.184)" fill="none" stroke="#bfd1e5" stroke-miterlimit="10" stroke-width="2"/><path d="M214.48,149.68s.88-14.13,1.21-17.63c.3-3.16,1.35-17,10-21.43,11-5.54,23.63-12.74,35.32-9.39,9.48,2.72,12.71,35.52,12.6,37.71C273.46,142.86,244.07,163.64,214.48,149.68Z" transform="translate(2585.463 803.184)" fill="#1462e1"/><path d="M233.33,106.77s-2,12.3,9.56,13.27c8.1.68,6.31-5.89,6.31-5.89s4,3.22,8.18.73-2.68-12.29-5.84-12.94S240.86,101.49,233.33,106.77Z" transform="translate(2585.463 803.184)" fill="#fff"/><circle cx="9.15" cy="9.15" r="9.15" transform="translate(2807.113 869.894)" fill="#4b1b13"/><path d="M256.88,83.5a11,11,0,0,0,2.39-6.4,10.38,10.38,0,0,0-.16-3.37A4.7,4.7,0,0,0,256.93,71a11.221,11.221,0,0,1-2.13-1.82s-23.93-4.65-26.68,9.29h0c-.5,3.91-.21,15.69,10.5,20.62,10.87,5,5.82-12.75,5.82-12.75" transform="translate(2585.463 803.184)" fill="#4b1b13"/><path d="M251.08,103.33l-14.29-7,1.21,9.94s.1.19.29.49c2.59,2.39,6.58,3.1,10.53,2.84a1.79,1.79,0,0,0,1.66-1.62C250.63,106.43,250.82,104.87,251.08,103.33Z" transform="translate(2585.463 803.184)" fill="#ffac73"/><path d="M257.33,80.84s.84-4.66-4.41-5.47c-1.4-.22-2.75-.22-3.61,1.09-1.05,1.62-1.2,3.53-2.72,4.9a5.35,5.35,0,0,1-5.58.89c0,1.55.19,2.71,2.08,3.22S255.86,83.89,257.33,80.84Z" transform="translate(2585.463 803.184)" fill="#ffac73"/><path d="M238.42,76.42c5.7-2,11.13-3.23,17.17-2.41a1,1,0,0,1,1,1c.44-2.42,1-8.53-3.9-10.39-6.19-2.33-16.53.61-19.39,6.19a17.75,17.75,0,0,0-2,8.92A25.483,25.483,0,0,1,238.42,76.42Z" transform="translate(2585.463 803.184)" fill="#4b1b13"/><path d="M250.71,105.9l-.23,2.09s-9.51-.27-10.83-8Z" transform="translate(2585.463 803.184)" fill="#e28e54"/><path d="M257.37,80.42V93.01c0,3.6-3.55,13-7.38,13-6,0-12-7.19-12-8.76,0,0-6-3.72-2.6-6.58s3.64,2,3.64,2,1.83-2.66,2-9.81a31.19,31.19,0,0,0,16.34-2.44Z" transform="translate(2585.463 803.184)" fill="#ffac73"/><path d="M265.86,146.07a17.691,17.691,0,0,0,1.59-1.11,106.661,106.661,0,0,0-2.86-21.24c-.29-1.22-2.16-.7-1.87.52a104.331,104.331,0,0,1,2.83,22Z" transform="translate(2585.463 803.184)" fill="#5d84c1"/><path d="M229.42,154.09a5.8,5.8,0,0,1,.83.08l.71-24.51a1,1,0,0,0-1.94,0L228.3,154A6.751,6.751,0,0,1,229.42,154.09Z" transform="translate(2585.463 803.184)" fill="#5d84c1"/><path d="M236.11,97.12a14.49,14.49,0,0,0,4.18-7.66c.73-4.58-5.38-2.51-6.37-.53S233.28,96.06,236.11,97.12Z" transform="translate(2585.463 803.184)" fill="#4b1b13"/><path d="M236.92,184.69a101.092,101.092,0,0,1,17.66.07c7.89.69,17.64,4.6,22.41,11.78,7.15,10.78-4.07,19.48-13.67,24.2a73.41,73.41,0,0,1-31.84,7.92c-9.72.05-20.8-1.51-28.95-7.16-9.07-6.29-6.24-18.78,3.07-24,7.34-4.1,11.78-6.69,19.7-9.22C228.77,187.2,233.32,184.92,236.92,184.69Z" transform="translate(2585.463 803.184)" fill="none" stroke="#bfd1e5" stroke-miterlimit="10" stroke-width="2"/><path d="M209,215.84s.91-14.55,1.25-18.15c.31-3.25,1.39-17.56,10.34-22.07,11.3-5.71,24.34-13.12,36.37-9.67,9.76,2.8,13.09,36.57,13,38.83C269.71,208.82,239.44,230.21,209,215.84Z" transform="translate(2585.463 803.184)" fill="#e55600"/><path d="M232.08,177.35c0,.66,8,9.75,9.9,8.57s2.81-9.31,4-8.57,5.53,6,6.17,5.58-.94-14.35-2.22-16.69S232.08,172.18,232.08,177.35Z" transform="translate(2585.463 803.184)" fill="#2b415d"/><path d="M252.14,143.51v13c.05,3.7-1.51,13.71-7.6,13.39s-12.33-7.4-12.33-9c0,0-6.15-3.83-2.68-6.78s3.75,2,3.75,2,1.89-2.74,2-10.1a32.11,32.11,0,0,0,16.86-2.51Z" transform="translate(2585.463 803.184)" fill="#ffac73"/><path d="M232.49,170.65c3.11,2.86,8.16,3.4,12.83,2.73a1.52,1.52,0,0,0,1.4-1.32c.08-1.43.16-2.86.29-4.29L231,159.92l1.24,10.23A2.268,2.268,0,0,0,232.49,170.65Z" transform="translate(2585.463 803.184)" fill="#ffac73"/><path d="M243.5,173.57a13.037,13.037,0,0,0,1.87-.2,1.47,1.47,0,0,0,1.35-1.28c0-.74.07-1.49.12-2.23-3.4,0-9.45-.8-12.64-7.1a13.73,13.73,0,0,0,9.3,10.81Z" transform="translate(2585.463 803.184)" fill="#e5894a"/><path d="M252.12,148.89s3.86-2.43,3.4-8.19-6.82-9-15.5-8.51-18.62,4.75-20,18.93-4.48,22.41.55,24.49S233.61,180,242,179c0,0-8.15-16.11-7.3-27s1-2.57,2-.77S252.12,148.89,252.12,148.89Z" transform="translate(2585.463 803.184)" fill="#4b1b13"/><path d="M227.1,220.66h.9q-.13-9.12,0-18.25a1,1,0,1,0-2,0q-.08,9.06,0,18.12Z" transform="translate(2585.463 803.184)" fill="#bc424b"/><path d="M260.09,213h0l.21-.1.54-.3.64-.35L262,212q0-10.84-.64-21.67c-.07-1.28-2.07-1.29-2,0q.62,11.15.65,22.32A1,1,0,0,0,260.09,213Z" transform="translate(2585.463 803.184)" fill="#bc424b"/><ellipse cx="13.95" cy="10.42" rx="13.95" ry="10.42" transform="translate(2671.223 972.957) rotate(-79.32)" fill="#1462e1"/><ellipse cx="13.95" cy="10.42" rx="13.95" ry="10.42" transform="translate(2783.036 914.965) rotate(-79.32)" fill="#1462e1"/><ellipse cx="13.95" cy="10.42" rx="13.95" ry="10.42" transform="translate(2774.294 987.84) rotate(-79.32)" fill="#1462e1"/></g></svg>